<svg xmlns="http://www.w3.org/2000/svg" viewBox="0 0 730.46 784.96"><defs><style>.cls-1{fill:#3375bb;}.cls-2{fill:#01bc8d;}</style></defs><g id="Layer_2" data-name="Layer 2"><g id="Logo_Widnex" data-name="Logo Widnex"><g id="Logo_Layers" data-name="Logo Layers"><path class="cls-1" d="M542,175l-39.3,39.3-14.9,14.9-24.4,24.4-31.2,31.2-8.1,8.1h0l-39.3,39.3-16.3,16.3-23,23-32.6,32.6-6.7,6.7-36.8,36.7a3.62,3.62,0,0,1-5.1,0h0l-36.7-36.7-4.5-4.5a7.49,7.49,0,0,0-5.3-2.2h-65.2a3.59,3.59,0,0,0-3.6,3.6v1.1a5.08,5.08,0,0,0,1.5,3.6l3.9,3.9,33.9,33.9,9.5,9.5,12.1,12.1,17.7,17.7,25.8,25.8,8.1,8.1a7.54,7.54,0,0,0,10.6,0l8.2-8.2,55.6-55.6,9.5-9.5,31.2-31.1,14.9-14.9,32.5-32.6,8.1-8.1,14.9-14.9,16.3-16.3,24.4-24.4,14.9-14.9,39.3-39.3,1.4-1.4,14.9-14.9,23-23,17.7-17.7,14.9-14.9,6.8-6.7,2.8-2.8h-77.1a3.74,3.74,0,0,0-2.5,1Z"/><path class="cls-2" d="M561.66,507a13.8,13.8,0,0,0-4-1.7c-.1-.2-2.8-.4-8.2-.6a10.7,10.7,0,0,1-2.9-.8c-2.3-1.8-7-4.4-14-7.7a22.64,22.64,0,0,0-6.1-1.7,7.26,7.26,0,0,1-1.4-.6l-8.1-6.2-2.7-1.5c-.8-.4-3.7-1.5-8.9-3.2a23.06,23.06,0,0,1-6.7-6.5c-6.6-8.8-14.4-20.5-23.3-35.1l-5.3-6.7c-6.2-6.2-11.4-9.6-15.5-10.2-4.7-2.3-9-3.3-13.1-3a9,9,0,0,1-4-3,5.49,5.49,0,0,1-.7-3,17.49,17.49,0,0,1,1.3-6.1,3.5,3.5,0,0,0-.5-2.8l-23.3-29c-1.8-3-2.8-4.7-3-5.2a103.37,103.37,0,0,1-4.6-12.3,44.11,44.11,0,0,0-3.8-7.5,66.72,66.72,0,0,0-9.4-12.1c-2.8-4.5-6.8-11.3-11.8-20.5-6.1-4.2-13.4-10.6-21.7-19.4-10.1-11.7-15.4-18.2-15.9-19.4a144.53,144.53,0,0,1-13.1-21,9.07,9.07,0,0,0-1.9-1.9,56.86,56.86,0,0,0-25.1-3.7,17.66,17.66,0,0,0-5.1-4.4c-1.3-.8-3.6-1.2-7.1-1.1a3,3,0,0,1-1.1-.7,17,17,0,0,1-4.5-8c-4.7-1.1-7.2-2.1-7.6-2.9-2-2.9-3.1-4.8-3.1-5.6,2.6-3.9,3.5-7,2.5-9.1-.2-.9-2.3-2.1-6.5-3.8-3.6-4.1-5.9-6.2-7-6.5a4.82,4.82,0,0,0-3.1-.4,27.44,27.44,0,0,1-12.9,2c-4.8,1.8-7.2,2.6-7.2,2.2a8.3,8.3,0,0,1-2.4,0c-3.9-1.3-5.8-1.8-5.8-1.5a13.12,13.12,0,0,0-2.5.6c-4.2,2.7-6.7,3.9-7.6,3.6,0,.4-2.3-.3-7-1.9-.7-.2-3.9.1-9.4,1h-.2a58.37,58.37,0,0,1-3.4-11.7,4.47,4.47,0,0,0-.7-1.4,4.68,4.68,0,0,0-1.5-.8c-3.4-.6-5.3-1.2-5.6-1.6-.7-.2-2.6-2.1-5.8-5.6a25.59,25.59,0,0,0-6.1-2.8,7.11,7.11,0,0,1-2-1.9,31,31,0,0,1-2.2-5.2,4.88,4.88,0,0,1-.2-1.4,2.61,2.61,0,0,1,.3-1.1,10.57,10.57,0,0,0,2.2-3.3,2.12,2.12,0,0,0-.6-2.5,6.48,6.48,0,0,0-2.2-1.1l-9.5-1.3-6-2.9a4.08,4.08,0,0,0-1.6-.4,3.19,3.19,0,0,0-1.7.6,17.57,17.57,0,0,1-4.3,3.2h-5.8a15,15,0,0,0-4,2.2l-3.3.7a10.43,10.43,0,0,0-3.5,4.3c-.4.3-.9.5-1.3.8.1.8-1.5-.6-4.8-4a5.23,5.23,0,0,0-1.5-.7c-1.5-.6-4.9-.4-10,.5-7.5,3.3-11.6,6.3-12.4,9.1a1.13,1.13,0,0,0,.9.7c5.5.6,8.2,1.2,8.3,1.6a14.79,14.79,0,0,1,5.5,7.6c.8,4.3,1.2,6.1,1.3,5.6.6,1.2,2.2,2.6,4.7,4.3a3.92,3.92,0,0,1,.8,1.4l-1.1,10.7a3.85,3.85,0,0,0,1.1,2.8c.1.6,2.2,1.6,6.2,2.9,2.2,3.8,3.7,6.1,4.4,6.7l5.5,3.8a30.64,30.64,0,0,0,4.1,3.8,17.43,17.43,0,0,0,5.4,2.4c.5.2,1,.3,1.5.5a9,9,0,0,0,1.9,5.2c.8,1.3,4.3,2.5,10.3,3.5.3,0,1.8.9,4.5,2.8l6.9,2.9c.8.2,2.4,2.4,4.9,6.7l5.6,3.3c2.6,6.6,4.4,9.8,5.2,9.6a1.47,1.47,0,0,0,2-.4c.4-.2.7-1,.9-2.5a6.47,6.47,0,0,1,.8-.9,1.55,1.55,0,0,1,2-.2c.8.5,1.9,2.7,3.1,6.4.4.6,1.8,1.3,4.1,2.1a2.35,2.35,0,0,1,1,1.3,50.88,50.88,0,0,1,2.2,7.5c.4.9.4,3.2.3,6.6a5.94,5.94,0,0,0,1.1,3.1,1.37,1.37,0,0,0,1,.6c2.9-.2,4.6-.1,4.9.2l1.8.8c-2.4,2.7-3.4,4.3-3.1,4.5-.4.4.1,1.9,1.5,4.4l-1.8,6.6a2.45,2.45,0,0,0,.8,1.6l3.1,1.8c.5.2.2,1.9-.7,5.1a1.5,1.5,0,0,0,.4,1.1c.6.8,1.7,1,3.2.6.9-.3,2.4-1.6,4.7-3.8l6.1-2.5a2.74,2.74,0,0,1,1.3.2c1.3,1.2,2.2,1.9,2.9,1.9l6.3-.7a20.61,20.61,0,0,1,4.9,1.6c1.2.5,2,2,2.3,4.5,2.2,1.8,3.2,3,3.2,3.5.4.5.5,3.6.5,9.3a4.66,4.66,0,0,1-3.1,2.6c-.9-.3-1.3-1.4-1.1-3.3a7.61,7.61,0,0,0-1-1.2c-.2-.3-.9-.1-2.2.6l-2.3-1a2.2,2.2,0,0,0-1.2.6c-3.8,1.7-4,5.3-.7,10.9q2.4,3,9.3,4.8c.4-.2,1.3,1.9,2.6,6.4.9,1.2,1.6,1.8,2.1,1.9a6.92,6.92,0,0,0,5.1.1q1.5-.45,3.9-5.1c.2-.4,1-.6,2.5-.6a7.74,7.74,0,0,1,4.5,1,12.67,12.67,0,0,0,1.3,1.1,7.55,7.55,0,0,0,.1,3.7,4.18,4.18,0,0,0,1.1,1.8c2.7,1.7,4.1,2.8,4.3,3.3l2.3,4.9,4.1,5.2.7,7.4,1.7,4.7c.3.5.6,3.2.9,7.9a8.7,8.7,0,0,0,1.2,3.4c3,4.5,5.8,7.5,8.5,9,2.4,4.6,3.7,6.9,4.1,6.8a44.47,44.47,0,0,0,5.2,4.1l3.7,4.3,5.3,3.9a63.59,63.59,0,0,0,5.9,7.3,37.35,37.35,0,0,1-.3,4.1,4,4,0,0,0,.2,1.5c-.1.6,1.1,1.1,3.5,1.5a1,1,0,0,1,.4.7,11.64,11.64,0,0,1-2.7,5.6,1.1,1.1,0,0,0,0,.8c.1.4,1.2,1.4,3.2,2.7.2.3.4.5.5.7a10,10,0,0,0,1,2.4L335,462c.4.1.9,1.9,1.4,5.4a1.45,1.45,0,0,0,.7,1c1.6.3,2.3-.3,2.1-1.9a7.72,7.72,0,0,0-.6-1.5,58.09,58.09,0,0,1-3.2-5.8c-1.1-2.3-1.6-3.6-1.4-3.9.2-1.1,1.1-1.4,2.8-1a2.33,2.33,0,0,1,1.1,1.1,18.94,18.94,0,0,1,1.1,3.8,4.05,4.05,0,0,0,.5.9c-.1.3,1,1.1,3.2,2.6a3.14,3.14,0,0,1,.8,1,23,23,0,0,1,1.2,4.8,7.66,7.66,0,0,0,.9,2,7.52,7.52,0,0,0,3.8,2.6l2.4,2.9a1.33,1.33,0,0,0,1.2.4,1.7,1.7,0,0,0,.4-1.3,14.19,14.19,0,0,1-.7-5.5h0c.1.1.2.3.4.4l4.2,3.3c2.1,3.2,3.8,5.3,5.2,6.3a1.35,1.35,0,0,0,1.7,0l2.1-3.1a3.27,3.27,0,0,1,2-.1c4.2,1.4,6.8,3.6,7.6,6.4a4.76,4.76,0,0,0,3.3.7,11.14,11.14,0,0,0,1.3-.2c1.7-1,2.8-1.6,3.5-1.6a31,31,0,0,1,6.7-.4,9.15,9.15,0,0,0,2.4-.4,3.55,3.55,0,0,0,.9-.4l2.3-1.8,4.6-.3a8,8,0,0,0,2-.5l3.2-2.1a14.68,14.68,0,0,1,1.9-.5c2.9-.4,4.4-.7,4.6-.9a10.78,10.78,0,0,0,2-1.2,1.45,1.45,0,0,1,.7-.2,5.71,5.71,0,0,1,2.2-.1,32,32,0,0,1,6.2,1.4c1.3.2,2,.3,2.2.1,1-.2,3-1.3,5.8-3.2a9.32,9.32,0,0,0,2.2,1.9,5.7,5.7,0,0,0,2.2,1.1,15.83,15.83,0,0,0,3.8.5,7.72,7.72,0,0,1,1.5.6c0-.3,2,1.6,5.8,5.7,0,.3,1.5,1,4.5,2.2,3.1,3,5,4.5,5.5,4.4a6.33,6.33,0,0,0,2.3.3q3-.75,3.6-.3l5.4,2.8a5.29,5.29,0,0,0,1.6.4,4.12,4.12,0,0,0,1.2-.1c2.2-1.1,3.4-1.6,3.7-1.5,2.7.4,6.7.1,12-.7l3.2.5.2.2a29,29,0,0,0,4.9,2.7l7.4,7a6.75,6.75,0,0,0,3.5,1.3,21.9,21.9,0,0,0,4.7,7.1,2.85,2.85,0,0,0,2,.8c2.5.1,3.8-.1,3.8.1l5.7,2.7c.8,1.1.8,2.5,0,4.3q-8.85.45-10.2,3.9a15.46,15.46,0,0,0,6.7,5.6c.2.2,1.4.1,3.5-.5a14.36,14.36,0,0,1,3.3,1.5,1.67,1.67,0,0,0,1.2.1,2.45,2.45,0,0,0,1.4-1.3c1.3-4.2,2.4-6.4,3.4-6.5.2-.3,1.8-.5,4.9-.7l2.1-.7,5.3-.7c.1,0,.2-.1.3-.2.4,0,.9-.1,1.4-.1,2.4.7,4.1.9,5,.5l10.1-3.9a9.58,9.58,0,0,0,2.7-1.6C564.26,509.86,563.86,508.46,561.66,507Z"/><polygon class="cls-1" points="648.66 172.16 295.37 525.46 277.46 525.46 630.86 172.16 648.66 172.16"/><path class="cls-2" d="M363.26,739.56C263.46,691,128.86,599,23.46,400.46c51,159.6,147,280.9,340.8,384.5,198.7-140.3,367.8-308.1,366-635.2C700.76,419,562.46,612,363.26,739.56Z"/><path class="cls-2" d="M659.66,67.46c-202.6-91-419.1-99.6-659.5,34.3-5.3,304.6,117.9,473.6,304,573.7-164.6-135.3-281.4-297-249.3-541.1,174.5-104.7,367.1-109.1,573.6-35.9l30.9-30.9C659.46,67.56,659.56,67.46,659.66,67.46Z"/><path class="cls-2" d="M689.66,149.86l-4.8,4.8,1.7,170.6,43.9-213.6c-.6-.3-1.1-.6-1.7-.9l-29.5,29.4Z"/></g></g></g></svg>