<svg id="Layer_1" data-name="Layer 1" xmlns="http://www.w3.org/2000/svg" viewBox="0 0 253.42 152.73"><title>logo-01</title><path d="M261.86,290.54V337.3H245.2a8.86,8.86,0,0,1-8.86-8.86V229.58H211.51V337.3h0a24.83,24.83,0,0,0,24.83,24.83h50.35V290.54Z" transform="translate(-209.8 -227.73)" style="fill:#4f31c5;stroke:#1d1d1b;stroke-miterlimit:10;stroke-width:3.4194185101270973px"/><path d="M382.1,273.72v43.83c0-.57,0-12.73-.05-13.3,0-.13,0-.27,0-.41-1-15.5-13.3-29.14-28.74-30.41-.35,0-.7-.06-1.06-.07l-38.13-.05v20.23l37,.07c5.06.23,9.09,6,9.09,11.13v.07l.06,10.95H306.73v41.09H301a9.54,9.54,0,0,1-.23-19.07h6v-22h-3.21l-2.48,0a31.51,31.51,0,0,0-.11,63h27.62v-41H382.1A21.83,21.83,0,0,0,403.93,316h0V273.72Z" transform="translate(-209.8 -227.73)" style="fill:#4f31c5;stroke:#1d1d1b;stroke-miterlimit:10;stroke-width:3.4194185101270973px"/><path d="M461.48,306.54c0-1,0-1.76,0-1.88l0-.41c-1-15.51-13.3-29.14-28.73-30.42l-1.06-.07-27.52,0v19.82l26.39.07c5.06.23,9.1,6,9.1,11.13,0,0,0,.05,0,.07l.07,10.95H404l0,22.08h57.48l0-22.32Z" transform="translate(-209.8 -227.73)" style="fill:#4f31c5;stroke:#1d1d1b;stroke-miterlimit:10;stroke-width:3.4194185101270973px"/><polygon points="251.71 110.11 251.71 110.11 251.71 110.45 251.71 110.11" style="fill:#4f31c5;stroke:#1d1d1b;stroke-miterlimit:10;stroke-width:3.4194185101270973px"/><path d="M461.48,306.54c0,3.65,0,11.3,0,11.3V305.06Z" transform="translate(-209.8 -227.73)" style="fill:#4f31c5;stroke:#1d1d1b;stroke-miterlimit:10;stroke-width:3.4194185101270973px"/><path d="M284.29,229.44v55.7a32.41,32.41,0,1,0-32.48,32.41h32.48A22.51,22.51,0,0,0,306.8,295h0v-65.6Zm-22.52,65.47-9.89.06a9.83,9.83,0,1,1,9.83-9.83v.07Z" transform="translate(-209.8 -227.73)" style="fill:#4f31c5;stroke:#1d1d1b;stroke-miterlimit:10;stroke-width:3.4194185101270973px"/><path d="M251.81,295h21.76a10.78,10.78,0,0,0,10.78-10.78h0" transform="translate(-209.8 -227.73)" style="fill:none;stroke:#1d1d1b;stroke-miterlimit:10;stroke-width:3.4194185101270973px"/><path d="M268.17,240.59l-.08-.08-7.71-7.71a11,11,0,0,0-15.56,0h0a11,11,0,0,0,0,15.56h0a11,11,0,0,0,15.56,0l7.63-7.62" transform="translate(-209.8 -227.73)" style="fill:#4f31c5"/><polygon points="119.51 66.43 119.51 4.79 97 4.79 97 66.43 97 87.76 119.51 87.76 119.51 66.43" style="fill:#4f31c5;stroke:#1d1d1b;stroke-miterlimit:10;stroke-width:3.4194185101270973px"/><path d="M326.44,229.44H306.75v23.07h22.63v20.77H349V252A22.51,22.51,0,0,0,326.44,229.44Z" transform="translate(-209.8 -227.73)" style="fill:#4f31c5;stroke:#1d1d1b;stroke-miterlimit:10;stroke-width:3.4194185101270973px"/><circle cx="132.5" cy="123.83" r="10.24" style="fill:#4f31c5;stroke:#1d1d1b;stroke-miterlimit:10;stroke-width:3.4194185101270973px"/><circle cx="183.89" cy="123.83" r="10.24" style="fill:#4f31c5;stroke:#1d1d1b;stroke-miterlimit:10;stroke-width:3.4194185101270973px"/><ellipse cx="160.31" cy="123.83" rx="10.63" ry="10.24" style="fill:#4f31c5;stroke:#1d1d1b;stroke-miterlimit:10;stroke-width:3.4194185101270973px"/><path d="M275.85,248.27,260.38,232.8a11,11,0,0,0-15.56,0h0a11,11,0,0,0,0,15.56h0a11,11,0,0,0,15.56,0l15.47-15.47" transform="translate(-209.8 -227.73)" style="fill:none;stroke:#1d1d1b;stroke-miterlimit:10;stroke-width:3.6145798643334346px"/></svg>