<svg width="90" height="90" viewBox="0 0 90 90" fill="none" xmlns="http://www.w3.org/2000/svg">
<path d="M76.875 42.375V26.4C76.875 11.2875 73.35 7.5 59.175 7.5H30.825C16.65 7.5 13.125 11.2875 13.125 26.4V68.625C13.125 78.6 18.6 80.9625 25.2375 73.8375L25.275 73.8C28.35 70.5375 33.0375 70.7999 35.7 74.3624L39.4875 79.425" stroke="#A6A9B9" stroke-width="5.625" stroke-linecap="round" stroke-linejoin="round"/>
<path d="M68.25 80.25C74.8775 80.25 80.25 74.8775 80.25 68.25C80.25 61.6226 74.8775 56.25 68.25 56.25C61.6226 56.25 56.25 61.6226 56.25 68.25C56.25 74.8775 61.6226 80.25 68.25 80.25Z" stroke="#A6A9B9" stroke-width="5.625" stroke-linecap="round" stroke-linejoin="round"/>
<path d="M82.5 82.5L78.75 78.75" stroke="#A6A9B9" stroke-width="5.625" stroke-linecap="round" stroke-linejoin="round"/>
<path opacity="0.4" d="M30 26.25H60" stroke="#A6A9B9" stroke-width="5.625" stroke-linecap="round" stroke-linejoin="round"/>
<path opacity="0.4" d="M33.75 41.25H56.25" stroke="#A6A9B9" stroke-width="5.625" stroke-linecap="round" stroke-linejoin="round"/>
</svg>
