<?xml version="1.0" encoding="utf-8"?>
<!-- Generator: Adobe Illustrator 24.3.0, SVG Export Plug-In . SVG Version: 6.00 Build 0)  -->
<svg version="1.0" id="Layer_1" xmlns="http://www.w3.org/2000/svg" xmlns:xlink="http://www.w3.org/1999/xlink" x="0px" y="0px"
	 viewBox="0 0 1080 1080" style="enable-background:new 0 0 1080 1080;" xml:space="preserve">
<style type="text/css">
	.st0{fill:#FFFFFF;}
	.st1{fill:#CF9D2A;}
	.st2{fill:#522D1D;}
</style>
<g>
	<path class="st0" d="M352.1,732c1.7-5.7,1.6-12,4.4-17.2c0.9,5.7,2.6,11.3,3.4,17.1C357.2,732,354.7,732,352.1,732L352.1,732z"/>
	<path class="st1" d="M461.5,329H617c2.7,1.2,5.4,2.5,8,3.9c4.2,2.4,7.1,6.7,8.8,11.1c1.9,5.1,1.3,10.6,1.4,15.9c0,46,0,92,0,138
		c0,8.2-4,17.1-11.8,20.5c-5.4,2.9-11.8,2.3-17.7,2.3c-40.3,0-80.7,0-121,0c-8.1,0.1-16.4,1-24.4-0.5c-9.3-2.5-16.8-11.5-16.5-21.3
		c-0.1-49,0-98.1,0-147.1c-0.1-4.3,1-8.8,3.6-12.3C450.8,334.6,456.2,331.5,461.5,329 M460.3,337.5c-7.1,3.6-11.4,11.6-11.2,19.4
		c0.1,25.4,0,50.7,0,76.1c2.7-3.7,4.6-7.8,7-11.7c5.4-8.6,11.7-16.9,19.8-23.2c10.5-8.6,24.7-12.9,38.3-10.5
		c10.9,2.7,20.7,8.3,30.6,13.3c13.6,7.3,27,15.1,41.5,20.5c8.2,2.6,17.4,5.1,25.7,1.7c7.5-2.8,12.2-10.2,14.4-17.6
		c1.7-6.4,3.3-12.9,3.2-19.6c0-10.4,0-20.7,0-31.1c0.1-10.4-9.3-19.8-19.7-19.7c-44.3,0.1-88.7,0-133.1,0
		C471.2,335.3,465.2,334.5,460.3,337.5 M621.1,432.3c-6,9.4-13.7,17.9-23.2,23.9c-9.8,5.9-21.7,8.8-33,6.6
		c-12.2-2.8-23.1-9.2-34.2-14.9c-15.4-8.1-30.8-17.4-48-20.9c-8.2-1.9-17.9-0.2-23.5,6.5c-6.6,7.3-8.2,17.6-9.8,27
		c-0.6,10.8,0,21.7-0.3,32.6c-0.4,8.4,4.5,16.9,12.2,20.5c4.8,2.4,10.3,1.7,15.4,1.7c42,0,84,0,126,0c4.4-0.1,9,0.4,13.3-1.1
		c8.1-3,14-11.4,13.5-20.1c-0.1-25.1,0.2-50.1-0.1-75.2C626.2,423.1,624.1,428,621.1,432.3L621.1,432.3z"/>
	<path class="st2" d="M460.3,337.5c5-3,10.9-2.2,16.4-2.3c44.4,0,88.7,0,133.1,0c10.4-0.1,19.8,9.4,19.7,19.7c0,10.4,0,20.7,0,31.1
		c0.1,6.7-1.5,13.2-3.2,19.6c-2.2,7.4-6.8,14.8-14.4,17.6c-8.4,3.4-17.5,0.9-25.7-1.7c-14.5-5.4-27.9-13.2-41.5-20.5
		c-9.9-5-19.7-10.6-30.6-13.3c-13.5-2.4-27.7,1.9-38.3,10.5c-8.1,6.3-14.4,14.6-19.8,23.2c-2.4,3.9-4.3,8-7,11.7
		c0-25.4,0.1-50.7,0-76.1C448.9,349.1,453.2,341.1,460.3,337.5 M621.1,432.3c3-4.3,5.1-9.2,8.3-13.5c0.3,25.1,0,50.1,0.1,75.2
		c0.5,8.7-5.4,17.2-13.5,20.1c-4.3,1.5-8.9,1-13.3,1.1c-42,0-84,0-126,0c-5.2-0.1-10.6,0.7-15.4-1.7c-7.7-3.5-12.7-12-12.2-20.5
		c0.2-10.9-0.3-21.8,0.3-32.6c1.6-9.4,3.2-19.6,9.8-27c5.7-6.6,15.3-8.4,23.5-6.5c17.3,3.6,32.6,12.8,48,20.9
		c11.1,5.6,22,12,34.2,14.9c11.3,2.1,23.2-0.7,33-6.6C607.4,450.3,615.1,441.8,621.1,432.3 M530.6,565.2c2.5-1,4.8-2.5,7.4-3.4
		c-1,4.1-1.5,9.6-6,11.4c-7,3.3-15,0.7-22.4,0.2c-1.4,2.2-2.8,4.4-4.1,6.6c-2.3-2.2-4.4-4.9-5.1-8c0.9-3.3,2.1-7.3,5.8-8.4
		c4.2-1,8.4,0.8,12.6,1.4C522.7,565.6,526.7,566,530.6,565.2 M606.8,582.2c13-5.1,26.1-10.1,39.6-13.8c-0.5,3.9-2.9,7.2-4.6,10.6
		c-0.9,1.4-1.5,3.2-3.2,3.7c-13,4.1-26.3,7.9-38.4,14.2c11.4,12.8,24.8,23.7,37.2,35.5c5.6,5.5,13.6,8.3,21.5,8.1
		c5,0,9.7-1.5,14.6-2.3c0.6-6.8-5.6-11.9-7.1-18.2c2.6-4.3,5-8.8,8.5-12.5c5,8.2,9.7,17.5,8.6,27.4c-0.8,7.6-5,15.2-11.9,18.8
		c-9.1,4.5-20,4.5-29.5,1c-8.2-3.8-12.1-12.5-18-18.8c-1.8,8.9-9,16.1-17.7,18.3c-13.9,3.5-28.6,4.1-42.6,1.1
		c-7.4-1.3-14.4-6.1-17.1-13.3c-3.8-9-1.3-19,1.4-28c1.3-1.2,3.1,0.3,4.6,0.3c-0.1,4.8-1.4,9.7,0.4,14.3c1.9,5.9,8,9.2,13.7,10.4
		c10.8,2.9,22.1,2.3,33,0c5.5-0.8,10.8-2.5,15.7-5c-4.9-10.9-14.7-18.5-22.7-27c-2-4.9-2.1-11,0.4-15.8
		C595.8,586,601.7,584.3,606.8,582.2 M686.4,584.9c3.2-3.3,6-7.3,10.4-9.1c2.5,18,1.5,36.1,1.6,54.2c-0.1,3.6,0.8,8.2,4.9,9.2
		c8.1,2,16.7,0.9,24.7-1c2-0.4,0.8-2.7,0.4-3.9c-1.7-4.5-4.4-8.5-6.4-12.8c-0.8-1.5,0.4-2.9,1.1-4.1c2-3,3.8-6.1,6-9
		c1-0.7,1.7-0.5,2.2,0.7c4.6,8.5,8.3,18.1,7.2,27.9c-0.7,7.9-6,15.8-14,17.8c-8.3,2.2-17.6,3.4-25.7-0.2c-4.7-1.9-7.2-6.6-8.6-11.2
		c-1.4-6.1-1.2-12.3-1.4-18.5C689,611.6,687.3,598.3,686.4,584.9 M521.1,577.3c1.3-1.6,3.4-0.3,2.9,1.7c1,9,1.2,18,1.5,27
		c0.6,8.7,0.5,17.4-0.1,26.1c-0.3,5.4,0,11.1-2.6,16c-1.8,3.2-4,6.5-6.9,8.8c-0.9-0.8-1.3-1.7-1.1-2.9c0.5-7.3,0.8-14.6,1.1-22
		c-0.7-10.3-0.4-20.7-1.6-31c-0.4-4.9-1.5-9.8-1.4-14.7C515.2,582.9,518.3,580.1,521.1,577.3 M421,594.1c0.5,0.1,1.5,0.2,2,0.2
		c2.8,11.3,5.1,22.8,7.1,34.3c0.9,3.3,2.2,6.8,4.9,9.1c6,4.1,14.1,3,20.2-0.1c4.1-2.4,4.8-7.4,6.8-11.3c1.7-2.2,4.4-3.5,7-4.5
		c-0.9,5.4-3,12.8,2.9,16.1c9,4.3,19.5,2.3,28.7-0.2c-0.8-6.3-5.1-11.3-7.6-16.9c1.9-4.9,5.2-9.4,8.7-13.4c4.9,8.6,10,18.3,8.1,28.6
		c-0.9,7.1-4.2,14.9-11.1,18c-8.9,3.5-19.1,4.6-28.1,1c-3.7-1.2-6.8-3.8-9.1-6.9c-3.5,3.6-7.6,7-12.6,8.1c-7,2.2-15.3,0.2-20.2-5.3
		c-2-2.2-3.1-5.1-4.4-7.8c-1.6,5.9-6.5,10.7-12.4,12.2c-6.3,1.8-14.2,2.8-19.4-2.2c-5.6-6.1-4.6-15-4.3-22.6
		c1.7-0.1,3.5-0.3,5.2-0.5c0.8,3.4,1.5,7.6,5.2,9c7.2,2.9,15.7,0,21.7-4.4c0.7-10.2-3.8-19.8-6.4-29.5
		C415.5,601,418.5,597.6,421,594.1 M350.8,609.1c3.4-3.5,1.4-8.9,3.8-12.9c4.3,2.2,7.7,5.5,11.6,8.3c6.6,5.1,13.6,11,15.7,19.5
		c1.2,8.3-0.1,17.2-5,24.1c-6.8,9.2-21.6,11.8-30.6,4.3c-5.2-4.5-6.7-11.9-6.2-18.5C340.3,624.6,345,616.2,350.8,609.1 M347.9,629.2
		c-1.1,4.8,3,9,7.4,10c6.7,1.8,15.3-0.1,19.3-6.3c-2.3-8-10-12.6-16.8-16.5C353.8,620,349.6,624,347.9,629.2 M435.6,621.8
		c1-3.9,4.5-7.1,7-10.4c3.8,2.9,8.4,5.4,10.9,9.5c-1.6,3.3-3.6,6.9-6.8,8.9C442.6,627.8,439.3,624.4,435.6,621.8 M644.7,621.8
		c1.2-4,4.5-7,6.9-10.3c4,2.5,7.7,5.5,11.1,8.8c-1.1,3.8-3.8,6.8-6.4,9.8C652.1,628,648.6,624.5,644.7,621.8 M475.9,659.8
		c2.8,2.1,5.1,4.7,7.6,7.2c2.2-2.4,4.4-4.7,6.5-7.1c3.1,1.6,5.3,4.5,7.6,7.1c0.8,1.1,2.1,2.2,1.7,3.7c-2,3-4.7,5.5-7.6,7.6
		c-2.3-2.3-4.7-4.6-7.1-6.9c-2.2,2.4-4.6,4.7-7,6.9c-3.6-2.8-6.4-6.5-9.9-9.5C470.2,665.5,473.2,662.8,475.9,659.8 M706.4,669.9
		c2.1-3.6,4.5-7,7.2-10.2c4,2.8,7.8,5.8,11.2,9.2c-1.8,3.6-4.1,7-7.1,9.7C714,675.7,710.1,672.9,706.4,669.9 M352.7,696.8
		c2.3,0,4.6,0,6.9,0.2c4.3,18,8.5,36,12.6,54c-2.8,0.4-5.7,0.5-8.6-0.1c-0.5-3.7-1.3-7.4-2-11c-3.7-0.2-7.4-0.2-11,0.1
		c-0.6,3.6-1.3,7.2-2.3,10.7c-2.5,1.4-5.4,0.5-8.1,0.5c0.6-6.7,3.1-13.1,4.2-19.7C347.4,720,349.6,708.3,352.7,696.8 M352.1,732
		c2.6,0,5.1,0,7.7-0.1c-0.7-5.8-2.4-11.4-3.4-17.1C353.7,720.1,353.8,726.4,352.1,732 M370.5,696.9c2.9-0.2,5.9-0.2,8.8,0.2
		c2.3,6.7,3.8,13.6,6.4,20.1c2.6-6.5,4.4-13.4,6.4-20.1c3-0.5,5.9-0.4,8.9-0.2c-3.3,10.5-7.6,20.7-10.9,31.3
		c-0.5,7.6,0,15.3-0.2,22.9c-2.7,0.4-5.5,0.4-8.2,0c-0.4-7.6,0.1-15.3-0.3-22.9C378,717.7,373.8,707.5,370.5,696.9 M411.8,697
		c2.5-0.2,5-0.3,7.5,0.2c3.8,18,8.3,35.9,12.4,53.8c-2.7,0.3-5.4,0.4-8.1,0.3c-1.1-3.8-1.9-7.6-2.8-11.4c-3.6-0.1-7.2-0.3-10.8,0.1
		c-0.7,3.7-1.7,7.2-2.4,10.9c-2.7,0.5-5.5,0.4-8.2,0C403.1,732.9,408,715.1,411.8,697 M415,714.9c-1,5.7-2.2,11.4-3.4,17
		c2.6,0.1,5.2,0.1,7.9,0c-1.5-5.4-2.3-10.9-3.4-16.3C415.8,715.4,415.2,715.1,415,714.9 M439,697c2.8-0.3,5.6-0.3,8.4,0.1
		c3.8,10.4,7.4,20.9,11.8,31c0.2-10.4-0.1-20.9,0.1-31.3c2.8-0.1,5.6-0.1,8.4,0c0.2,18,0.3,36.1,0,54.1c-2.6,0.5-5.3,0.5-8,0
		c-3.8-10.4-8-20.7-11.8-31.1c-0.2,10.4-0.5,20.7-0.4,31.1c-2.8,0.5-5.7,0.6-8.4-0.1C439.1,732.9,439.1,715,439,697 M477.1,697.1
		c7.1,0,15-1.7,21.3,2.2c4.3,2.6,5.3,8,5.1,12.7c-0.2,9.3,0.3,18.6-0.2,27.9c-0.1,5.1-4.1,9.8-9.1,10.8c-5.6,1.1-11.5,1.2-17.2,0.3
		C477.1,733,477.1,715,477.1,697.1 M485.5,704.6c0.1,13.1-0.2,26.2,0.2,39.3c2.4-0.1,4.9,0.1,7.1-0.7c2-1.3,2.6-3.8,2.6-6.1
		c0-8,0-16.1,0-24.1c0-2.6-0.1-5.6-2.1-7.5C490.9,704.1,488.1,704.5,485.5,704.6 M512.9,696.9c8.2-0.2,16.4-0.3,24.6,0
		c0,2.4,0,4.8,0.1,7.3c-5.3,0.4-10.5,0.1-15.8,0.2c-0.6,5.2-0.2,10.5-0.2,15.8c4.6,0,9.3,0,13.9,0.1c-0.1,2.5-0.1,4.9-0.1,7.4
		c-4.6,0-9.2,0-13.9,0.1c-0.1,5.2-0.1,10.4,0,15.5c5.3,0.2,10.6,0.1,16,0.1c0,2.5,0,5.1,0,7.6c-8.2,0.6-16.4,0.6-24.6,0
		C512.9,733,512.9,715,512.9,696.9 M546.9,697c2.8-0.2,5.6-0.2,8.4,0.1c-0.1,7.7-0.2,15.4,0,23.1c3.2,0,6.5,0,9.7,0
		c0.1-7.7,0.1-15.4,0-23.1c2.8-0.3,5.5-0.3,8.3,0c-0.1,18-0.1,35.9,0,53.9c-2.8,0.7-5.6,0.6-8.3,0c0-7.9,0.3-15.8-0.2-23.7
		c-3.1,0.1-6.3,0-9.4,0c-0.5,7.9-0.2,15.8-0.2,23.7c-2.7,0.6-5.6,0.8-8.3,0.1C546.9,733,546.9,715,546.9,697 M601.9,696.9
		c7.3,0.2,15.6-1.8,22.1,2.7c6.2,5.8,7,17.8-0.3,23.1c5.6,3.7,5.4,11,4.7,16.9c-0.6,4.6-3.5,9.3-8.2,10.6c-6,1.4-12.3,1.4-18.4,0.7
		C601.9,733,601.9,715,601.9,696.9 M610.4,704.5c0,4.9-0.1,9.7,0.1,14.6c3-0.3,6.9,0.4,9.2-2.2c1.1-3.2,1.4-6.9,0.1-10
		C617.9,703.7,613.5,704.6,610.4,704.5 M610.6,726.2c-0.4,5.7-0.2,11.4-0.1,17.2c2.8-0.1,6,0.5,8.5-1.2c2.4-4,1.9-9.1,1-13.4
		C618,725.6,613.7,726.3,610.6,726.2 M646.6,696.9c2.4-0.1,4.8-0.1,7.2,0c4,18.1,8.6,36,12.5,54.2c-2.8,0.4-5.5,0.5-8.3-0.1
		c-0.7-3.7-1.6-7.3-2.4-11c-3.6-0.2-7.2-0.2-10.8,0c-0.9,3.7-1.8,7.3-2.3,11c-2.8,0.6-5.6,0.5-8.3,0.1
		C638,733,642.7,715,646.6,696.9 M646.2,732c2.6,0,5.2,0,7.8,0c-1.4-6-2.3-12.1-3.7-18C648.4,719.8,647.9,726.1,646.2,732
		 M671.6,696.9c2.8,0.2,6-0.9,8.5,0.6c4.1,10.5,7.8,21.1,12.1,31.6c0-10.7-0.1-21.5,0.1-32.2c2.7-0.1,5.4-0.1,8.1,0.2
		c-0.1,18-0.1,35.9,0,53.9c-2.6,0.4-5.7,1.2-8.1-0.4c-4.2-10.1-7.5-20.6-12-30.6c-0.3,10.4,0.3,20.8-0.4,31.1
		c-2.8,0.3-5.6,0.3-8.4,0C671.5,733,671.5,715,671.6,696.9 M709.7,696.9c2.8-0.1,5.6-0.1,8.3-0.1c0.2,8,0,16.1,0.1,24.2
		c4-8,8-15.9,11.7-24c2.8-0.2,5.5-0.2,8.3-0.1c-2.8,7.2-7.2,13.5-10.1,20.6c-0.6,1.2-0.2,2.6,0.2,3.9c3.5,9.8,7.4,19.6,10.5,29.6
		c-2.9,0.6-5.9,0.7-8.8,0c-2.5-7.6-4.7-15.4-7.5-22.9c-1.6,2.2-3.2,4.4-4.1,7c-0.4,5.2-0.1,10.5-0.1,15.8c-2.8,0.6-5.7,0.7-8.6,0.2
		C709.5,733,709.4,714.9,709.7,696.9L709.7,696.9z"/>
</g>
</svg>
