<svg width="20" height="21" viewBox="0 0 20 21" fill="none" xmlns="http://www.w3.org/2000/svg">
<path d="M14.19 0.5H5.81C2.17 0.5 0 2.67 0 6.31V14.68C0 18.33 2.17 20.5 5.81 20.5H14.18C17.82 20.5 19.99 18.33 19.99 14.69V6.31C20 2.67 17.83 0.5 14.19 0.5ZM17 6.74C17 7.29 16.55 7.74 16 7.74H14C13.59 7.74 13.25 8.08 13.25 8.49C13.25 8.91 13.59 9.24 14 9.24H16C16.55 9.24 17 9.69 17 10.24V10.75C17 11.3 16.55 11.75 16 11.75H14C13.59 11.75 13.25 12.09 13.25 12.5C13.25 12.91 13.59 13.25 14 13.25H16C16.55 13.25 17 13.7 17 14.25V14.5C17 16.16 15.66 17.5 14 17.5H6C4.34 17.5 3 16.16 3 14.5V14C3 13.45 3.45 13 4 13H5.48C6.95 13 8.12 11.74 7.97 10.24C7.84 8.94 6.65 8 5.34 8H4C3.45 8 3 7.55 3 7V6.5C3 4.84 4.34 3.5 6 3.5H14C15.66 3.5 17 4.84 17 6.5V6.74ZM3 10.5C3 9.95 3.45 9.5 4 9.5H5C5.55 9.5 6 9.95 6 10.5C6 11.05 5.55 11.5 5 11.5H4C3.45 11.5 3 11.05 3 10.5Z" fill="currentColor"/>
</svg>
